<svg width="14" height="14" viewBox="0 0 14 14" fill="none" xmlns="http://www.w3.org/2000/svg">
<path d="M4.35054 6.52727C4.35054 5.32568 5.32406 4.35134 6.52529 4.35134C7.72651 4.35134 8.70055 5.32568 8.70055 6.52727C8.70055 7.72886 7.72651 8.7032 6.52529 8.7032C5.32406 8.7032 4.35054 7.72886 4.35054 6.52727ZM3.17463 6.52727C3.17463 8.3784 4.67471 9.87894 6.52529 9.87894C8.37586 9.87894 9.87594 8.3784 9.87594 6.52727C9.87594 4.67614 8.37586 3.17559 6.52529 3.17559C4.67471 3.17559 3.17463 4.67614 3.17463 6.52727ZM9.22555 3.0427C9.22549 3.19762 9.27135 3.34907 9.35734 3.47792C9.44333 3.60676 9.56559 3.7072 9.70864 3.76654C9.8517 3.82588 10.0091 3.84146 10.161 3.8113C10.3129 3.78113 10.4525 3.70659 10.5621 3.59709C10.6716 3.48759 10.7462 3.34806 10.7765 3.19613C10.8068 3.0442 10.7913 2.8867 10.7321 2.74356C10.6729 2.60041 10.5726 2.47804 10.4439 2.39192C10.3151 2.3058 10.1638 2.2598 10.0089 2.25974H10.0086C9.801 2.25984 9.60193 2.34235 9.45512 2.48915C9.3083 2.63596 9.22573 2.83505 9.22555 3.0427V3.0427ZM3.88907 11.8403C3.25288 11.8113 2.90709 11.7053 2.6773 11.6158C2.37265 11.4971 2.15528 11.3558 1.92673 11.1275C1.69819 10.8992 1.55672 10.682 1.43864 10.3773C1.34906 10.1475 1.24309 9.8015 1.21417 9.16512C1.18254 8.4771 1.17622 8.27042 1.17622 6.52732C1.17622 4.78423 1.18306 4.57812 1.21417 3.88952C1.24315 3.25314 1.3499 2.90782 1.43864 2.67738C1.55725 2.37264 1.69851 2.1552 1.92673 1.92659C2.15496 1.69798 2.37212 1.55647 2.6773 1.43835C2.90699 1.34874 3.25288 1.24274 3.88907 1.21381C4.57689 1.18217 4.7835 1.17585 6.52529 1.17585C8.26707 1.17585 8.47389 1.18269 9.16228 1.21381C9.79847 1.24279 10.1437 1.34958 10.3741 1.43835C10.6787 1.55647 10.8961 1.69829 11.1246 1.92659C11.3532 2.15489 11.4941 2.37264 11.6127 2.67738C11.7023 2.90714 11.8083 3.25314 11.8372 3.88952C11.8688 4.57812 11.8751 4.78423 11.8751 6.52732C11.8751 8.27042 11.8688 8.47652 11.8372 9.16512C11.8082 9.8015 11.7017 10.1474 11.6127 10.3773C11.4941 10.682 11.3528 10.8994 11.1246 11.1275C10.8964 11.3556 10.6787 11.4971 10.3741 11.6158C10.1444 11.7054 9.79847 11.8114 9.16228 11.8403C8.47447 11.872 8.26785 11.8783 6.52529 11.8783C4.78272 11.8783 4.57668 11.872 3.88907 11.8403V11.8403ZM3.83504 0.0395291C3.14039 0.0711733 2.66571 0.181354 2.25117 0.342708C1.82186 0.509336 1.45843 0.732882 1.09526 1.09559C0.732085 1.4583 0.509181 1.82241 0.342604 2.25186C0.181299 2.66678 0.0711517 3.14134 0.0395171 3.83621C0.00736052 4.53217 0 4.75467 0 6.52727C0 8.29987 0.00736052 8.52237 0.0395171 9.21833C0.0711517 9.91325 0.181299 10.3878 0.342604 10.8027C0.509181 11.2319 0.732137 11.5964 1.09526 11.9589C1.45838 12.3215 1.82186 12.5447 2.25117 12.7118C2.66649 12.8732 3.14039 12.9834 3.83504 13.015C4.53116 13.0467 4.75323 13.0545 6.52529 13.0545C8.29734 13.0545 8.51978 13.0472 9.21553 13.015C9.91024 12.9834 10.3846 12.8732 10.7994 12.7118C11.2285 12.5447 11.5921 12.3217 11.9553 11.9589C12.3185 11.5962 12.5409 11.2319 12.708 10.8027C12.8693 10.3878 12.9799 9.9132 13.0111 9.21833C13.0427 8.52185 13.05 8.29987 13.05 6.52727C13.05 4.75467 13.0427 4.53217 13.0111 3.83621C12.9794 3.14129 12.8693 2.66652 12.708 2.25186C12.5409 1.82267 12.3179 1.45887 11.9553 1.09559C11.5927 0.732307 11.2285 0.509336 10.7999 0.342708C10.3846 0.181354 9.91019 0.0706512 9.21605 0.0395291C8.5203 0.00788494 8.29787 0 6.52581 0C4.75375 0 4.53116 0.00736276 3.83504 0.0395291Z" fill="white"/>
</svg>
